<svg width="30" height="22" viewBox="0 0 30 22" fill="none" xmlns="http://www.w3.org/2000/svg">
<path fill-rule="evenodd" clip-rule="evenodd" d="M0.600098 1.55C0.600098 1.19196 0.742329 0.84858 0.995503 0.595406C1.24868 0.342232 1.59206 0.200001 1.9501 0.200001H28.0501C28.4081 0.200001 28.7515 0.342232 29.0047 0.595406C29.2579 0.84858 29.4001 1.19196 29.4001 1.55C29.4001 1.90804 29.2579 2.25142 29.0047 2.50459C28.7515 2.75777 28.4081 2.9 28.0501 2.9H1.9501C1.59206 2.9 1.24868 2.75777 0.995503 2.50459C0.742329 2.25142 0.600098 1.90804 0.600098 1.55ZM0.600098 11C0.600098 10.642 0.742329 10.2986 0.995503 10.0454C1.24868 9.79223 1.59206 9.65 1.9501 9.65H28.0501C28.4081 9.65 28.7515 9.79223 29.0047 10.0454C29.2579 10.2986 29.4001 10.642 29.4001 11C29.4001 11.358 29.2579 11.7014 29.0047 11.9546C28.7515 12.2078 28.4081 12.35 28.0501 12.35H1.9501C1.59206 12.35 1.24868 12.2078 0.995503 11.9546C0.742329 11.7014 0.600098 11.358 0.600098 11ZM0.600098 20.45C0.600098 20.092 0.742329 19.7486 0.995503 19.4954C1.24868 19.2422 1.59206 19.1 1.9501 19.1H28.0501C28.4081 19.1 28.7515 19.2422 29.0047 19.4954C29.2579 19.7486 29.4001 20.092 29.4001 20.45C29.4001 20.808 29.2579 21.1514 29.0047 21.4046C28.7515 21.6578 28.4081 21.8 28.0501 21.8H1.9501C1.59206 21.8 1.24868 21.6578 0.995503 21.4046C0.742329 21.1514 0.600098 20.808 0.600098 20.45Z" fill="#3A82F6"/>
</svg>
