<svg width="556" height="379" viewBox="0 0 556 379" fill="none" xmlns="http://www.w3.org/2000/svg">
<path d="M48.2422 215.717H0.867188V103.949L265.339 0V47.375L48.2422 132.006V215.717Z" fill="#02256E"/>
<path d="M48.7012 241.015H1.32617V379H265.798V332.085H48.7012V241.015Z" fill="#02256E"/>
<path d="M508.191 241.015H555.566V379H291.094V332.085H508.191V241.015Z" fill="#02256E"/>
<path d="M508.191 215.717H555.566V103.949L291.094 0V47.375L508.191 132.006V215.717Z" fill="#02256E"/>
<path d="M73.9268 155.253L122.634 149.926V305.94H73.9268V155.253Z" fill="#B4CCFE"/>
<path d="M215.481 103.064L264.188 95.8916V305.94H215.481V103.064Z" fill="#B4CCFE"/>
<path d="M434.662 126.333L483.369 145.32V304.417H434.662V126.333Z" fill="#B4CCFE"/>
<path d="M363.124 98.9355L411.831 117.682V302.895H363.124V98.9355Z" fill="#B4CCFE"/>
<path d="M73.998 146.265V190.261L120.453 174.322L145.291 165.123V305.408H194.505V146.265L218.883 136.606L264.878 119.484V71.293L73.998 146.265Z" fill="#02256E"/>
<path d="M339.39 92.8469V139.762L339.39 261.252H434.6L483.354 305.407H291.095V70.832L339.39 92.8469Z" fill="#02256E"/>
</svg>
