<svg width="1014" height="385" viewBox="0 0 1014 385" fill="none" xmlns="http://www.w3.org/2000/svg">
<path d="M325 41L318 221H355C355 162 465 134 465 221H568C564.8 209 576 192.667 582 186L609 0L325 41Z" fill="#17B1D0"/>
<rect x="277" y="142" width="93" height="15" fill="#17B1D0"/>
<rect x="237" y="110" width="93" height="15" fill="#17B1D0"/>
<rect x="292" y="84" width="93" height="15" fill="#17B1D0"/>
<rect x="245" y="53" width="93" height="15" fill="#17B1D0"/>
<path d="M602 45L582 186C611 156 672 158 677 219H718L729 131L686 111L644 45H602Z" fill="#0D305A"/>
<circle cx="408" cy="221" r="33" fill="#0D305A"/>
<circle cx="623" cy="221" r="33" fill="#0D305A"/>
<path d="M40.8 356V279.32H2.4V269.6H88.8V279.32H50.52V356H40.8ZM170.735 356L142.535 322.4H155.255L183.575 355.88V356H170.735ZM97.7747 356V269.72H169.775C172.415 269.72 174.815 270.4 176.975 271.76C179.215 273.04 180.975 274.76 182.255 276.92C183.535 279.08 184.175 281.48 184.175 284.12V309.44C184.175 312.08 183.535 314.48 182.255 316.64C180.975 318.8 179.215 320.56 176.975 321.92C174.815 323.2 172.415 323.84 169.775 323.84H107.495V356H97.7747ZM112.175 314H169.775C171.055 314 172.135 313.56 173.015 312.68C173.975 311.8 174.455 310.72 174.455 309.44V284.12C174.455 282.84 173.975 281.76 173.015 280.88C172.135 279.92 171.055 279.44 169.775 279.44H112.175C110.895 279.44 109.775 279.92 108.815 280.88C107.935 281.76 107.495 282.84 107.495 284.12V309.44C107.495 310.72 107.935 311.8 108.815 312.68C109.775 313.56 110.895 314 112.175 314ZM263.573 356V279.32H225.173V269.6H311.573V279.32H273.293V356H263.573ZM320.068 356V300.92C320.068 298.28 320.708 295.88 321.988 293.72C323.348 291.48 325.108 289.72 327.268 288.44C329.508 287.08 331.948 286.4 334.588 286.4H373.708V296.24H334.588C333.308 296.24 332.188 296.72 331.228 297.68C330.348 298.56 329.908 299.64 329.908 300.92V356H320.068ZM396.114 356C393.474 356 391.034 355.36 388.794 354.08C386.634 352.72 384.874 350.96 383.514 348.8C382.234 346.56 381.594 344.12 381.594 341.48V286.4H391.434V341.48C391.434 342.76 391.874 343.88 392.754 344.84C393.714 345.72 394.834 346.16 396.114 346.16H437.874C439.154 346.16 440.274 345.72 441.234 344.84C442.194 343.88 442.674 342.76 442.674 341.48V286.4H452.514V341.48C452.514 344.12 451.834 346.56 450.474 348.8C449.194 350.96 447.434 352.72 445.194 354.08C443.034 355.36 440.594 356 437.874 356H396.114ZM476.968 356C474.328 356 471.888 355.36 469.648 354.08C467.488 352.72 465.728 350.96 464.368 348.8C463.088 346.56 462.448 344.12 462.448 341.48V300.92C462.448 298.28 463.088 295.88 464.368 293.72C465.728 291.48 467.488 289.72 469.648 288.44C471.888 287.08 474.328 286.4 476.968 286.4H533.128V296.24H476.968C475.688 296.24 474.568 296.72 473.608 297.68C472.728 298.56 472.288 299.64 472.288 300.92V341.48C472.288 342.76 472.728 343.88 473.608 344.84C474.568 345.72 475.688 346.16 476.968 346.16H533.368V356H476.968ZM543.902 356V263.6H553.742V316.28H572.942L600.302 286.4H613.262V286.52L581.702 321.2L613.142 355.88V356H600.302L572.942 326.12H553.742V356H543.902ZM654.535 356V269.48H664.255V346.28H740.935V356H654.535ZM747.451 356V286.4H757.291V356H747.451ZM747.451 273.44V263.6H757.291V273.44H747.451ZM770.894 356V286.4H827.294C829.934 286.4 832.334 287.08 834.494 288.44C836.734 289.72 838.494 291.48 839.774 293.72C841.134 295.88 841.814 298.28 841.814 300.92V356H831.974V300.92C831.974 299.64 831.494 298.56 830.534 297.68C829.654 296.72 828.574 296.24 827.294 296.24H785.534C784.254 296.24 783.134 296.72 782.174 297.68C781.214 298.56 780.734 299.64 780.734 300.92V356H770.894ZM868.609 356C865.969 356 863.529 355.36 861.289 354.08C859.129 352.72 857.369 350.96 856.009 348.8C854.729 346.56 854.089 344.12 854.089 341.48V300.92C854.089 298.28 854.729 295.88 856.009 293.72C857.369 291.48 859.129 289.72 861.289 288.44C863.529 287.08 865.969 286.4 868.609 286.4H910.369C913.089 286.4 915.529 287.08 917.689 288.44C919.929 289.72 921.689 291.48 922.969 293.72C924.329 295.88 925.009 298.28 925.009 300.92V326.12H863.929V341.48C863.929 342.76 864.369 343.88 865.249 344.84C866.209 345.72 867.329 346.16 868.609 346.16H925.009V356H868.609ZM863.929 316.28H915.049V300.92C915.049 299.64 914.569 298.56 913.609 297.68C912.729 296.72 911.649 296.24 910.369 296.24H868.609C867.329 296.24 866.209 296.72 865.249 297.68C864.369 298.56 863.929 299.64 863.929 300.92V316.28ZM951.335 356C948.695 356 946.255 355.36 944.015 354.08C941.855 352.72 940.095 350.96 938.735 348.8C937.455 346.56 936.815 344.12 936.815 341.48V340.52H946.655V341.48C946.655 342.76 947.095 343.88 947.975 344.84C948.935 345.72 950.055 346.16 951.335 346.16H993.095C994.375 346.16 995.455 345.72 996.335 344.84C997.295 343.88 997.775 342.76 997.775 341.48V330.8C997.775 329.52 997.295 328.44 996.335 327.56C995.455 326.6 994.375 326.12 993.095 326.12H951.335C948.695 326.12 946.255 325.48 944.015 324.2C941.855 322.84 940.095 321.08 938.735 318.92C937.455 316.68 936.815 314.24 936.815 311.6V300.92C936.815 298.28 937.455 295.88 938.735 293.72C940.095 291.48 941.855 289.72 944.015 288.44C946.255 287.08 948.695 286.4 951.335 286.4H993.095C995.815 286.4 998.255 287.08 1000.41 288.44C1002.65 289.72 1004.41 291.48 1005.69 293.72C1007.05 295.88 1007.73 298.28 1007.73 300.92V301.88H997.775V300.92C997.775 299.64 997.295 298.56 996.335 297.68C995.455 296.72 994.375 296.24 993.095 296.24H951.335C950.055 296.24 948.935 296.72 947.975 297.68C947.095 298.56 946.655 299.64 946.655 300.92V311.6C946.655 312.88 947.095 314 947.975 314.96C948.935 315.84 950.055 316.28 951.335 316.28H993.095C995.815 316.28 998.255 316.96 1000.41 318.32C1002.65 319.6 1004.41 321.36 1005.69 323.6C1007.05 325.76 1007.73 328.16 1007.73 330.8V341.48C1007.73 344.12 1007.05 346.56 1005.69 348.8C1004.41 350.96 1002.65 352.72 1000.41 354.08C998.255 355.36 995.815 356 993.095 356H951.335Z" fill="black"/>
</svg>
